<?xml version="1.0" standalone="no"?>
<!DOCTYPE svg PUBLIC "-//W3C//DTD SVG 20010904//EN"
 "http://www.w3.org/TR/2001/REC-SVG-20010904/DTD/svg10.dtd">
<svg version="1.0" xmlns="http://www.w3.org/2000/svg"
 width="225.000000pt" height="225.000000pt" viewBox="0 0 225.000000 225.000000"
 preserveAspectRatio="xMidYMid meet">

<g transform="translate(0.000000,225.000000) scale(0.100000,-0.100000)"
fill="#000000" stroke="none">
<path d="M1005 2234 c-399 -57 -706 -273 -875 -617 -152 -310 -155 -659 -9
-966 147 -311 398 -518 738 -609 85 -22 115 -25 266 -25 152 0 181 3 268 26
123 33 254 90 349 153 93 61 250 218 310 309 222 341 247 763 67 1120 -187
368 -546 598 -954 610 -71 2 -143 2 -160 -1z m381 -73 c386 -100 667 -382 777
-780 18 -64 21 -104 21 -256 0 -194 -10 -249 -69 -401 -135 -342 -471 -607
-830 -656 -118 -16 -333 -5 -429 22 -349 97 -625 352 -735 677 -49 144 -55
182 -55 358 0 176 6 214 55 358 120 356 452 633 834 697 92 16 341 5 431 -19z"/>
<path d="M1064 2070 c-15 -43 -18 -60 -9 -60 7 0 12 8 11 18 -1 12 6 17 24 17
18 0 25 -5 24 -17 -1 -10 4 -18 12 -18 8 0 14 2 14 4 0 6 -50 116 -52 116 -2
0 -12 -27 -24 -60z m36 -2 c0 -5 -6 -8 -14 -8 -9 0 -12 7 -9 21 4 16 8 17 14
7 5 -7 9 -16 9 -20z"/>
<path d="M943 2103 c-21 -8 -15 -22 7 -16 20 5 23 -6 24 -78 0 -10 5 -15 12
-12 9 3 10 12 3 30 -5 13 -9 36 -9 50 0 20 4 24 20 20 11 -3 18 -1 14 4 -5 9
-50 11 -71 2z"/>
<path d="M1252 2080 c-1 -16 -7 -41 -12 -55 -9 -23 -7 -25 18 -24 15 0 21 3
15 6 -16 6 -17 57 -3 84 8 14 7 19 -3 19 -7 0 -14 -13 -15 -30z"/>
<path d="M884 2085 c4 -10 10 -39 13 -63 4 -27 9 -40 15 -34 10 10 -8 90 -25
107 -7 7 -8 3 -3 -10z"/>
<path d="M1419 2025 l-16 -55 23 -6 c14 -4 31 -1 40 7 18 15 15 51 -6 57 -13
5 -13 3 -1 -11 11 -14 11 -20 1 -32 -26 -32 -50 -14 -31 23 13 27 22 72 14 72
-5 0 -15 -25 -24 -55z"/>
<path d="M1335 2060 c-4 -7 0 -10 11 -8 16 3 19 -3 16 -34 -2 -21 1 -38 6 -38
5 0 9 19 8 42 -1 31 -5 44 -18 46 -9 2 -19 -2 -23 -8z"/>
<path d="M814 2036 c-11 -30 1 -61 25 -64 13 -2 27 0 32 5 5 5 -3 9 -18 8 -19
0 -29 6 -31 19 -5 22 18 48 25 29 3 -7 9 -13 15 -13 6 0 6 6 -2 15 -16 19 -39
19 -46 1z"/>
<path d="M697 2019 c-16 -9 -16 -12 -2 -26 9 -8 19 -28 22 -44 3 -16 10 -29
15 -29 10 0 1 40 -13 55 -19 19 -10 45 16 45 28 0 50 -32 42 -61 -3 -10 -1
-17 4 -13 13 8 11 58 -3 72 -15 15 -57 15 -81 1z"/>
<path d="M1323 2014 c-3 -8 0 -21 7 -27 10 -10 12 -8 6 7 -4 12 -1 23 6 28 11
6 11 8 0 8 -7 0 -15 -7 -19 -16z"/>
<path d="M992 1949 c-173 -30 -319 -107 -447 -234 -170 -168 -247 -350 -248
-585 -1 -228 69 -409 224 -574 250 -268 637 -341 965 -181 507 246 631 909
246 1316 -114 121 -233 194 -394 239 -84 24 -264 34 -346 19z m214 -30 c228
-25 415 -129 549 -303 181 -237 218 -542 100 -821 -29 -68 -104 -176 -163
-235 -239 -237 -580 -300 -896 -165 -143 61 -299 208 -375 355 -70 135 -86
204 -86 375 0 172 15 239 88 380 58 114 209 264 322 322 103 52 192 81 285 92
41 5 76 9 78 10 1 0 46 -4 98 -10z"/>
<path d="M1030 1820 c-28 -6 -55 -21 -75 -41 -20 -21 -23 -28 -10 -21 57 29
165 44 172 25 3 -9 -5 -12 -26 -9 -17 2 -34 -1 -37 -6 -4 -5 -26 -18 -50 -28
-24 -11 -44 -21 -44 -24 0 -7 44 6 58 17 9 7 12 4 12 -12 0 -56 59 -111 118
-111 32 0 71 38 78 76 4 20 13 38 20 41 19 7 65 -24 71 -48 6 -21 18 -25 28
-9 3 6 18 10 33 11 24 0 25 1 7 9 -17 7 -17 9 -2 9 9 1 17 4 17 8 0 17 -46 73
-60 73 -9 0 -24 6 -35 14 -39 26 -199 41 -275 26z m170 -26 c0 -2 -7 -4 -15
-4 -8 0 -15 4 -15 10 0 5 7 7 15 4 8 -4 15 -8 15 -10z m-50 2 c0 -3 -4 -8 -10
-11 -5 -3 -10 -1 -10 4 0 6 5 11 10 11 6 0 10 -2 10 -4z m120 -6 c0 -5 7 -7
15 -4 9 4 15 0 15 -8 0 -8 -7 -15 -15 -15 -8 0 -15 5 -15 10 0 5 -7 7 -15 3
-8 -3 -15 0 -15 6 0 6 -7 5 -17 -3 -16 -12 -17 -12 -6 1 13 17 53 24 53 10z
m-90 -50 c0 -12 -45 -24 -60 -15 -5 3 -8 11 -5 16 8 12 65 12 65 -1z m-85 -10
c-3 -5 -13 -10 -21 -10 -8 0 -12 5 -9 10 3 6 13 10 21 10 8 0 12 -4 9 -10z
m107 -58 c-7 -2 -12 -10 -12 -17 0 -30 -84 -35 -100 -6 -15 29 -14 30 28 24
29 -4 41 -1 56 16 18 20 20 20 29 4 7 -12 7 -18 -1 -21z"/>
<path d="M899 1663 c-17 -20 -18 -23 -3 -10 11 9 26 17 32 17 7 0 12 5 12 10
0 18 -16 11 -41 -17z"/>
<path d="M1360 1659 c0 -5 5 -7 10 -4 6 3 10 8 10 11 0 2 -4 4 -10 4 -5 0 -10
-5 -10 -11z"/>
<path d="M1317 1633 c-10 -9 -9 -23 1 -23 5 0 17 7 28 15 19 14 19 14 -2 15
-11 0 -24 -3 -27 -7z"/>
<path d="M1275 1610 c-19 -8 -19 -9 3 -9 12 -1 22 4 22 9 0 6 -1 10 -2 9 -2 0
-12 -4 -23 -9z"/>
<path d="M1108 1473 c-8 -10 -84 -137 -168 -283 -84 -146 -171 -295 -193 -333
-32 -55 -37 -70 -27 -82 19 -22 808 -23 816 0 6 16 -383 706 -402 712 -6 2
-17 -4 -26 -14z m162 -310 c74 -130 150 -263 168 -295 l34 -59 -335 3 c-185 2
-338 6 -342 10 -4 3 31 71 78 150 46 78 121 207 166 286 46 78 86 142 89 142
4 0 68 -107 142 -237z"/>
<path d="M1167 1149 c7 -7 15 -10 18 -7 3 3 -2 9 -12 12 -14 6 -15 5 -6 -5z"/>
<path d="M1005 1130 c-3 -6 1 -7 9 -4 18 7 21 14 7 14 -6 0 -13 -4 -16 -10z"/>
<path d="M1080 1131 c0 -5 7 -12 16 -15 14 -5 15 -4 4 9 -14 17 -20 19 -20 6z"/>
<path d="M1085 1090 c3 -5 8 -10 11 -10 2 0 4 5 4 10 0 6 -5 10 -11 10 -5 0
-7 -4 -4 -10z"/>
<path d="M1266 1081 c-4 -5 3 -7 14 -4 23 6 26 13 6 13 -8 0 -17 -4 -20 -9z"/>
<path d="M1121 1077 c2 -1 13 -9 24 -17 19 -14 19 -14 6 3 -7 9 -18 17 -24 17
-6 0 -8 -1 -6 -3z"/>
<path d="M1185 1060 c3 -5 8 -10 11 -10 2 0 4 5 4 10 0 6 -5 10 -11 10 -5 0
-7 -4 -4 -10z"/>
<path d="M1105 1050 c3 -5 8 -10 11 -10 2 0 4 5 4 10 0 6 -5 10 -11 10 -5 0
-7 -4 -4 -10z"/>
<path d="M1295 1020 c-3 -6 1 -7 9 -4 18 7 21 14 7 14 -6 0 -13 -4 -16 -10z"/>
<path d="M1190 1010 c0 -5 5 -10 10 -10 6 0 10 5 10 10 0 6 -4 10 -10 10 -5 0
-10 -4 -10 -10z"/>
<path d="M1050 960 c6 -11 13 -20 16 -20 2 0 0 9 -6 20 -6 11 -13 20 -16 20
-2 0 0 -9 6 -20z"/>
<path d="M1158 968 c5 -5 16 -8 23 -6 8 3 3 7 -10 11 -17 4 -21 3 -13 -5z"/>
<path d="M1275 970 c-3 -6 1 -7 9 -4 18 7 21 14 7 14 -6 0 -13 -4 -16 -10z"/>
<path d="M1215 950 c10 -11 20 -18 23 -16 5 6 -23 36 -34 36 -4 0 1 -9 11 -20z"/>
<path d="M1160 920 c0 -5 5 -10 11 -10 5 0 7 5 4 10 -3 6 -8 10 -11 10 -2 0
-4 -4 -4 -10z"/>
<path d="M1000 903 c8 -2 22 -7 30 -10 13 -4 12 -6 -3 -17 -17 -13 -17 -14 1
-18 11 -3 30 3 43 13 24 18 24 19 2 19 -12 0 -25 5 -28 10 -3 6 -18 10 -33 9
-15 0 -20 -3 -12 -6z"/>
<path d="M1794 1005 c-4 -10 -13 -13 -25 -10 -20 7 -26 -9 -8 -20 6 -4 8 -13
5 -21 -3 -8 0 -11 8 -8 8 3 17 1 21 -5 11 -19 43 -12 50 10 4 11 4 23 1 26 -3
4 -6 -1 -6 -10 0 -21 -9 -21 -31 -1 -14 13 -16 21 -8 35 5 11 7 19 4 19 -3 0
-8 -7 -11 -15z"/>
<path d="M452 990 c-22 -21 -29 -40 -14 -40 4 0 21 12 37 26 17 14 25 23 18
20 -6 -4 -13 -1 -15 4 -2 6 -13 2 -26 -10z"/>
<path d="M520 973 c-8 -3 -29 -12 -47 -20 -34 -16 -34 -10 -21 -120 1 -7 4
-13 8 -13 4 0 7 -8 7 -17 0 -42 4 -54 14 -47 6 3 8 18 5 33 l-5 26 12 -27 c11
-24 14 -25 32 -12 10 8 31 14 47 14 15 0 28 5 28 10 0 12 2 12 -38 1 -20 -6
-32 -6 -32 0 0 5 3 9 8 10 22 2 56 10 61 14 8 8 -32 6 -67 -4 -22 -7 -30 -6
-26 1 4 6 -1 8 -15 3 -37 -11 -22 9 19 27 22 9 40 13 40 8 0 -4 -10 -10 -22
-13 -37 -10 -16 -15 27 -7 33 6 37 8 21 15 -19 8 -19 9 0 17 12 5 3 6 -24 3
-28 -4 -41 -2 -37 5 3 5 1 10 -5 10 -6 0 -8 5 -5 10 3 6 19 10 35 10 16 0 32
5 35 10 3 6 1 10 -5 10 -6 0 -8 5 -5 10 3 6 -2 10 -12 10 -17 1 -17 2 1 15 20
15 20 15 0 14 -10 0 -26 -3 -34 -6z m6 -22 c-4 -5 0 -11 6 -14 18 -6 9 -13
-27 -21 -29 -7 -29 -7 -10 8 12 9 15 15 7 16 -18 0 -4 20 14 20 8 0 13 -4 10
-9z m-53 -51 c3 -11 2 -22 -2 -24 -4 -3 -8 6 -9 20 -2 29 4 31 11 4z m27 -34
c0 -2 -7 -7 -16 -10 -8 -3 -12 -2 -9 4 6 10 25 14 25 6z"/>
<path d="M608 973 c7 -3 16 -2 19 1 4 3 -2 6 -13 5 -11 0 -14 -3 -6 -6z"/>
<path d="M608 943 c7 -3 16 -2 19 1 4 3 -2 6 -13 5 -11 0 -14 -3 -6 -6z"/>
<path d="M618 923 c7 -3 16 -2 19 1 4 3 -2 6 -13 5 -11 0 -14 -3 -6 -6z"/>
<path d="M1730 910 c0 -8 5 -22 10 -30 9 -13 10 -13 10 0 0 8 -5 22 -10 30 -9
13 -10 13 -10 0z"/>
<path d="M550 900 l-25 -8 28 -1 c15 -1 27 4 27 9 0 6 -1 10 -2 9 -2 -1 -14
-5 -28 -9z"/>
<path d="M610 906 c0 -2 9 -6 20 -9 11 -3 18 -1 14 4 -5 9 -34 13 -34 5z"/>
<path d="M620 879 c0 -5 9 -9 20 -9 11 0 20 2 20 4 0 2 -9 6 -20 9 -11 3 -20
1 -20 -4z"/>
<path d="M1749 858 c-38 -12 -59 -25 -62 -38 -4 -17 -3 -18 17 -6 11 8 37 19
58 25 20 7 39 18 42 26 3 8 4 14 3 14 -1 -1 -27 -10 -58 -21z"/>
<path d="M638 823 c6 -2 18 -2 25 0 6 3 1 5 -13 5 -14 0 -19 -2 -12 -5z"/>
<path d="M1743 785 c0 -22 2 -30 4 -17 2 12 2 30 0 40 -3 9 -5 -1 -4 -23z"/>
<path d="M638 803 c6 -2 18 -2 25 0 6 3 1 5 -13 5 -14 0 -19 -2 -12 -5z"/>
<path d="M1654 762 c-6 -4 -15 -18 -19 -32 l-7 -25 16 22 c9 12 23 20 30 17 7
-3 16 2 19 10 7 17 -18 22 -39 8z"/>
<path d="M498 742 c-22 -15 -24 -20 -14 -35 8 -10 26 -17 44 -17 17 0 34 -4
37 -10 3 -5 13 -10 22 -10 11 0 13 5 8 18 -4 9 -8 22 -8 29 0 13 -55 15 -63 1
-3 -4 -12 -8 -20 -8 -8 0 -12 5 -9 10 4 6 10 8 15 5 7 -5 24 24 17 31 -1 2
-15 -5 -29 -14z"/>
<path d="M540 751 c0 -6 4 -13 10 -16 6 -3 7 1 4 9 -7 18 -14 21 -14 7z"/>
<path d="M606 713 c-6 -14 -5 -15 5 -6 7 7 10 15 7 18 -3 3 -9 -2 -12 -12z"/>
<path d="M1666 713 c-6 -14 -5 -15 5 -6 7 7 10 15 7 18 -3 3 -9 -2 -12 -12z"/>
<path d="M1632 675 c4 -39 39 -46 62 -13 9 12 16 27 16 33 0 5 -5 2 -11 -7 -5
-10 -19 -18 -29 -18 -10 0 -24 8 -30 18 -9 14 -10 12 -8 -13z"/>
<path d="M597 624 c12 -19 19 -22 33 -14 22 12 35 30 21 30 -5 0 -11 -5 -13
-11 -2 -5 -11 -7 -21 -4 -9 4 -15 10 -12 14 2 4 -2 8 -10 8 -11 0 -10 -5 2
-23z"/>
<path d="M1594 635 c-5 -11 -10 -13 -19 -5 -19 16 -26 -12 -9 -35 8 -10 14
-15 14 -10 0 4 9 0 20 -10 22 -20 50 -14 49 12 0 10 -3 13 -6 6 -3 -9 -10 -9
-29 3 -19 13 -22 20 -13 35 5 10 7 19 4 19 -3 0 -8 -7 -11 -15z"/>
<path d="M389 1806 c-10 -20 -9 -30 5 -51 24 -37 76 -32 90 8 14 39 -2 61 -47
65 -31 3 -39 -1 -48 -22z"/>
<path d="M1762 1818 c-17 -17 -15 -63 2 -77 24 -20 69 -9 85 21 14 24 14 28
-3 47 -21 23 -65 28 -84 9z"/>
<path d="M202 844 c-41 -29 -19 -94 33 -94 51 0 71 54 35 90 -24 24 -38 25
-68 4z"/>
<path d="M1982 844 c-24 -16 -28 -44 -12 -75 15 -27 64 -25 84 3 21 30 20 44
-4 68 -24 24 -38 25 -68 4z"/>
<path d="M1897 673 c-9 -9 -9 -24 1 -21 4 2 24 -8 45 -21 28 -17 41 -20 48
-12 5 6 6 9 3 6 -7 -5 -75 33 -85 47 -3 5 -8 5 -12 1z"/>
<path d="M354 626 c-7 -7 -25 -22 -40 -34 l-29 -21 28 -28 c26 -27 29 -27 55
-13 33 19 40 58 15 88 -14 17 -20 19 -29 8z m31 -56 c-8 -26 -52 -37 -71 -18
-13 13 -10 18 23 41 32 23 39 24 46 12 4 -9 5 -24 2 -35z"/>
<path d="M1850 613 c0 -17 63 -102 72 -97 5 3 1 12 -9 19 -17 13 -17 15 -1 31
13 13 20 15 30 6 11 -8 16 -7 24 6 10 15 7 17 -20 18 -17 0 -46 6 -63 12 -18
6 -33 8 -33 5z m53 -39 c-4 -11 -9 -12 -19 -3 -20 16 -17 28 5 22 12 -3 17
-11 14 -19z"/>
<path d="M391 518 l-34 -39 23 -24 c13 -13 28 -22 33 -18 6 3 1 10 -11 14 -25
10 -29 31 -8 48 11 10 16 9 24 -5 6 -11 14 -14 22 -9 10 6 8 10 -9 17 -12 4
-19 12 -16 18 11 18 35 11 45 -12 5 -15 9 -17 9 -7 1 8 -9 25 -21 36 l-23 20
-34 -39z"/>
<path d="M1750 490 c-27 -27 -22 -57 11 -83 31 -22 65 -16 74 14 7 22 -12 52
-27 43 -5 -3 -1 -12 8 -18 22 -16 10 -36 -21 -36 -27 0 -61 42 -50 60 4 6 16
15 28 19 13 5 16 10 9 15 -6 4 -21 -3 -32 -14z"/>
<path d="M456 453 c-21 -24 -34 -43 -29 -43 14 0 86 77 76 82 -4 3 -25 -15
-47 -39z"/>
<path d="M1697 444 c-3 -4 5 -18 19 -32 34 -37 30 -45 -12 -27 -20 8 -45 15
-56 15 -17 0 -16 -3 7 -27 14 -16 28 -36 31 -45 3 -10 10 -18 15 -18 12 0 -4
32 -25 50 -31 25 -15 29 34 10 28 -11 50 -15 50 -10 0 15 -57 90 -63 84z"/>
<path d="M544 427 c17 -12 16 -16 -17 -50 -19 -21 -30 -40 -25 -43 5 -3 11 -4
12 -3 1 2 15 21 31 42 25 34 30 37 40 23 7 -9 15 -13 18 -9 7 7 -51 53 -67 53
-5 0 -2 -6 8 -13z"/>
<path d="M460 386 c7 -7 13 -7 20 0 6 6 3 10 -10 10 -13 0 -16 -4 -10 -10z"/>
<path d="M601 341 c-32 -28 -41 -40 -31 -46 8 -5 11 -4 6 3 -9 15 10 25 34 17
21 -7 28 -35 9 -35 -5 0 -7 -4 -4 -10 12 -20 24 -9 30 28 3 20 8 47 11 60 6
30 -4 28 -55 -17z m35 -6 c-3 -9 -11 -13 -16 -10 -8 5 -7 11 1 21 14 18 24 11
15 -11z"/>
<path d="M1587 362 c-20 -13 -27 -24 -26 -47 1 -28 1 -29 8 -5 7 24 7 24 21
-10 8 -19 14 -38 12 -42 -2 -9 12 -11 20 -2 3 3 -5 25 -18 49 -17 29 -21 46
-14 50 6 4 12 5 14 4 33 -45 46 -71 40 -80 -4 -8 0 -8 15 0 11 7 21 15 21 18
0 3 -3 3 -7 0 -6 -7 -25 16 -47 57 -12 23 -13 23 -39 8z"/>
<path d="M1483 312 c-11 -7 11 -36 22 -30 3 2 21 -10 40 -25 19 -15 35 -24 35
-19 0 16 -86 81 -97 74z"/>
<path d="M746 301 c-4 -6 -1 -9 7 -5 26 9 29 -14 7 -55 -11 -23 -16 -42 -10
-46 5 -3 15 13 21 36 13 40 39 64 47 41 2 -7 9 -9 14 -5 8 4 9 -2 4 -18 -3
-13 -9 -37 -12 -54 l-5 -30 13 27 c15 32 34 26 39 -12 3 -19 11 -26 32 -28 19
-2 27 1 27 12 0 11 9 16 26 16 21 0 25 -4 21 -20 -3 -13 0 -20 10 -20 9 0 12
6 9 18 -3 9 -8 34 -12 55 -3 20 -10 37 -14 37 -4 0 -18 -20 -31 -45 -15 -28
-30 -44 -39 -42 -8 2 -14 9 -12 16 1 7 -3 19 -9 27 -9 11 -8 14 5 14 9 0 16 8
16 20 0 20 -5 23 -80 49 -62 22 -68 23 -74 12z m137 -48 c8 -7 -11 -33 -24
-33 -5 0 -9 9 -9 20 0 19 20 27 33 13z m83 -60 c-11 -11 -19 6 -11 24 8 17 8
17 12 0 3 -10 2 -21 -1 -24z"/>
<path d="M1413 280 l-21 -9 19 -38 c10 -20 19 -43 19 -51 0 -7 5 -10 10 -7 7
4 7 12 0 25 -15 29 7 36 34 11 32 -30 44 -26 16 4 -14 15 -25 36 -25 48 0 24
-19 30 -52 17z m36 -37 c-15 -18 -34 -1 -25 22 5 14 9 15 21 5 12 -10 13 -16
4 -27z"/>
<path d="M1310 250 c-11 -11 -20 -29 -20 -40 0 -25 34 -60 58 -60 25 0 52 31
52 58 0 25 -33 62 -55 62 -8 0 -24 -9 -35 -20z m54 -9 c33 -37 -2 -102 -38
-72 -19 16 -21 62 -4 79 16 16 22 15 42 -7z"/>
<path d="M1513 240 c6 -16 15 -30 19 -30 5 0 2 14 -7 30 -9 17 -17 30 -19 30
-3 0 1 -13 7 -30z"/>
<path d="M1244 243 l-31 -4 8 -46 c5 -25 6 -49 3 -54 -3 -5 1 -9 8 -9 8 0 14
11 13 28 0 16 5 26 13 25 6 -2 12 4 12 13 0 13 -3 14 -13 5 -15 -12 -27 -5
-27 17 0 10 8 13 25 10 17 -4 25 -1 25 8 0 8 -1 13 -2 12 -2 0 -17 -3 -34 -5z"/>
<path d="M1030 201 c0 -22 -3 -46 -6 -55 -3 -9 -1 -16 5 -16 6 0 11 17 11 40
0 51 10 51 34 0 24 -51 36 -51 36 -1 0 22 3 46 6 55 4 10 1 16 -8 16 -10 0
-13 -11 -10 -42 l3 -43 -27 43 c-14 23 -30 42 -35 42 -5 0 -9 -18 -9 -39z"/>
<path d="M1136 223 c-5 -12 2 -25 24 -43 29 -24 31 -27 15 -40 -15 -12 -19
-12 -31 5 -11 15 -14 16 -14 3 0 -21 27 -30 51 -17 27 14 20 41 -14 57 -15 7
-27 17 -27 23 0 16 32 23 41 8 7 -11 9 -11 9 4 0 23 -46 23 -54 0z"/>
</g>
</svg>
