<?xml version="1.0" standalone="no"?>
<!DOCTYPE svg PUBLIC "-//W3C//DTD SVG 20010904//EN"
 "http://www.w3.org/TR/2001/REC-SVG-20010904/DTD/svg10.dtd">
<svg version="1.0" xmlns="http://www.w3.org/2000/svg"
 width="388.000000pt" height="200.000000pt" viewBox="0 0 388.000000 200.000000"
 preserveAspectRatio="xMidYMid meet">

<g transform="translate(0.000000,200.000000) scale(0.100000,-0.100000)"
fill="#000000" stroke="none">
<path d="M1778 1913 c0 -5 -2 -12 -3 -18 -5 -25 -34 -78 -35 -62 0 9 -5 17
-11 17 -8 0 -7 6 2 18 13 15 12 16 -4 3 -10 -8 -16 -20 -13 -28 3 -7 -1 -13
-9 -13 -8 0 -15 -4 -15 -10 0 -5 8 -7 18 -3 14 5 15 4 4 -8 -11 -12 -15 -12
-25 2 -11 14 -14 14 -26 2 -11 -12 -10 -17 5 -29 17 -12 16 -13 -13 -3 -37 12
-85 9 -90 -7 -2 -7 6 -10 21 -9 18 2 24 -1 23 -15 -1 -19 -27 -16 -27 4 -1 6
-6 1 -13 -10 -11 -20 -13 -20 -27 -6 -13 14 -12 15 4 9 11 -5 16 -3 14 5 -8
23 -27 19 -34 -6 -3 -14 -11 -26 -18 -27 -6 0 -2 -4 9 -9 12 -5 14 -9 6 -9
-10 -1 -5 -11 15 -32 23 -25 25 -29 8 -21 -18 9 -25 8 -35 -5 -8 -9 -13 -18
-11 -20 10 -14 -1 -13 -14 3 -15 19 -16 19 -9 -1 12 -35 10 -39 -12 -43 -17
-2 -23 2 -23 14 0 10 -3 14 -7 11 -3 -4 -13 -1 -21 6 -9 7 -13 7 -9 1 3 -6 -5
-16 -20 -23 -20 -9 -24 -14 -14 -21 9 -5 12 -20 9 -41 -4 -25 0 -37 16 -51 18
-15 19 -17 4 -18 -9 0 -22 -8 -28 -17 -9 -16 -10 -15 -5 5 6 22 -8 31 -20 12
-3 -5 -12 -10 -18 -10 -7 0 -6 4 3 10 9 6 10 10 3 10 -16 0 -28 -21 -16 -29 6
-3 7 -15 2 -26 -4 -11 -8 -16 -8 -11 -1 5 -8 3 -16 -4 -10 -9 -15 -9 -15 -1 0
6 5 11 10 11 6 0 10 7 10 15 0 10 -9 15 -27 14 -18 -1 -22 -3 -10 -6 17 -4 17
-5 -1 -21 -22 -20 -34 -59 -21 -68 17 -10 9 -26 -11 -21 -10 3 -18 0 -17 -5 1
-6 -3 -12 -8 -14 -6 -3 -11 13 -12 36 -1 22 1 39 5 39 4 -1 14 -1 22 0 12 1
11 4 -4 12 -26 16 -42 -5 -50 -63 -6 -41 -5 -48 14 -58 12 -6 24 -9 27 -6 3 3
21 -1 40 -9 43 -18 48 -18 65 -2 7 8 26 17 41 21 27 6 28 5 26 -26 -2 -18 -1
-71 0 -118 3 -72 4 -79 11 -45 17 93 19 125 4 125 -8 0 -14 5 -14 11 0 6 7 9
15 5 18 -6 20 16 5 44 -8 16 -8 18 5 14 8 -4 15 -1 15 6 0 6 5 8 10 5 6 -4 10
7 10 24 0 24 -4 31 -20 31 -11 0 -20 5 -20 11 0 5 5 7 11 4 5 -4 19 1 30 11
10 9 19 13 19 8 0 -5 4 -2 9 5 7 10 4 23 -7 40 -9 15 -22 35 -29 46 -6 11 -17
19 -23 17 -7 -2 -10 3 -7 12 3 8 1 17 -6 20 -9 3 -8 5 1 5 9 1 10 6 3 20 -9
16 -8 18 10 14 17 -5 20 -12 17 -35 -4 -25 0 -32 21 -40 14 -6 21 -12 14 -15
-13 -5 7 -50 29 -64 18 -12 51 -11 43 0 -3 5 3 11 12 14 15 3 14 6 -7 16 -24
11 -24 11 -2 7 21 -4 23 -2 18 20 -6 23 -5 24 14 14 15 -8 26 -7 43 2 12 7 27
11 33 10 6 -1 11 5 11 13 0 8 -4 15 -9 15 -5 0 -6 5 -3 10 4 6 11 8 16 5 5 -4
9 1 9 9 0 10 6 13 18 9 14 -6 15 -4 5 8 -17 21 21 66 42 49 9 -8 15 -8 20 0 8
13 25 13 25 0 0 -5 -11 -12 -25 -16 -26 -6 -26 -7 -5 -21 27 -19 25 -31 -6
-27 -19 2 -24 -1 -20 -12 3 -8 2 -14 -2 -14 -5 0 -18 -9 -30 -20 -12 -11 -24
-20 -27 -20 -32 1 -37 -1 -27 -12 5 -7 13 -24 17 -38 7 -22 6 -23 -8 -12 -9 8
-18 9 -21 3 -3 -5 0 -12 6 -14 10 -4 10 -6 0 -6 -7 -1 -10 -5 -7 -11 3 -5 2
-10 -4 -10 -6 0 -8 -7 -4 -17 5 -14 8 -13 14 6 7 17 16 21 43 19 19 -1 34 -6
33 -11 -1 -5 4 -12 12 -15 8 -3 11 0 7 7 -5 7 -1 9 8 5 18 -7 13 -20 -14 -34
-16 -9 -18 -8 -13 7 5 12 2 15 -10 10 -8 -3 -17 -1 -20 6 -2 8 -9 7 -20 -5
-23 -22 -22 -25 17 -63 22 -21 30 -35 22 -38 -7 -3 -23 8 -35 24 -13 16 -31
29 -40 29 -15 -1 -15 -1 1 -10 15 -9 15 -13 1 -40 -8 -17 -17 -30 -19 -30 -3
0 -3 4 0 9 7 10 -19 23 -28 14 -3 -4 -6 -13 -6 -22 0 -14 2 -14 11 -1 9 13 10
13 6 0 -2 -8 -11 -14 -20 -14 -13 1 -16 -7 -14 -37 2 -39 17 -56 17 -19 0 11
5 20 11 20 5 0 8 4 4 9 -3 5 -1 12 4 15 5 4 12 -8 16 -25 5 -23 9 -28 16 -18
5 8 9 22 9 32 0 9 9 26 21 38 18 18 20 18 17 2 -2 -12 4 -19 20 -21 21 -3 32
-22 12 -22 -5 0 -10 -11 -10 -24 0 -19 4 -23 20 -19 16 4 20 14 20 52 1 36 3
42 11 28 6 -9 7 -26 4 -37 -8 -25 4 -82 15 -75 4 3 7 16 5 30 -1 14 2 25 7 25
5 0 6 9 3 20 -10 31 12 24 32 -10 9 -16 22 -30 28 -30 5 0 3 -5 -5 -10 -10 -6
-11 -10 -2 -10 15 0 15 -21 0 -55 -14 -32 -58 -36 -58 -5 0 11 -5 20 -11 20
-6 0 -9 -9 -6 -19 5 -20 -24 -31 -82 -31 -14 0 -33 -5 -41 -10 -11 -8 0 -9 35
-5 92 10 155 13 155 8 0 -3 -8 -12 -17 -20 -15 -11 -13 -11 12 1 36 17 95 27
108 19 6 -3 58 -7 116 -8 l106 -3 -66 12 c-46 8 -65 15 -61 24 2 7 1 30 -3 50
-6 30 -8 33 -16 19 -6 -9 -7 -23 -2 -30 15 -23 11 -37 -12 -43 -16 -4 -30 2
-49 21 -25 25 -36 52 -16 40 7 -4 9 12 5 49 -4 44 -2 56 9 56 8 0 17 -7 20
-16 8 -21 8 -26 -3 -20 -10 6 -7 -51 3 -62 12 -12 23 19 19 54 -2 19 1 34 7
34 5 0 9 -3 9 -7 -4 -23 3 -40 22 -51 19 -12 20 -11 16 17 -3 17 0 32 6 35 9
5 9 8 0 12 -18 8 -16 24 2 24 8 0 14 -3 13 -7 0 -5 2 -15 5 -23 3 -8 8 -24 10
-35 3 -11 5 2 6 29 1 47 2 48 19 33 10 -10 24 -17 30 -17 7 0 12 -11 12 -25 0
-14 7 -28 15 -31 8 -4 12 -10 9 -15 -3 -5 1 -9 8 -9 10 0 10 -2 -1 -9 -8 -5
-11 -16 -6 -30 9 -29 25 -17 25 19 0 23 4 28 20 25 13 -2 20 2 20 11 0 8 9 14
20 14 11 0 20 5 20 10 0 6 -11 10 -25 10 -14 0 -25 -6 -25 -13 0 -7 -9 -13
-20 -13 -18 0 -18 2 7 23 31 28 35 28 62 6 14 -12 23 -31 24 -55 3 -49 14 -49
23 -1 6 30 9 33 14 18 5 -13 9 -15 14 -6 4 6 0 23 -9 38 -13 20 -14 27 -5 33
9 6 7 10 -7 14 -27 9 -29 56 -3 56 25 0 33 28 11 35 -16 5 -17 9 -8 29 7 14
17 22 27 19 12 -4 12 -3 1 5 -16 11 -53 4 -45 -9 3 -5 1 -9 -4 -9 -6 0 -8 -10
-6 -22 4 -21 4 -21 -4 -3 -5 11 -15 20 -22 20 -7 0 -15 6 -18 14 -3 10 0 12
12 8 10 -4 15 -3 11 3 -3 6 3 10 15 10 12 0 19 3 16 8 -2 4 13 6 35 4 21 -2
38 -7 37 -11 -2 -21 3 -44 10 -36 12 16 32 16 26 0 -4 -9 0 -15 7 -15 11 0 11
-3 -1 -10 -13 -8 -12 -10 3 -10 9 0 17 -6 17 -14 0 -8 5 -18 11 -22 8 -4 9 1
4 17 l-8 24 21 -25 c14 -17 21 -20 22 -10 0 9 5 7 16 -8 9 -13 14 -32 11 -43
-6 -21 18 -27 26 -6 4 9 8 9 14 1 4 -6 18 -14 30 -18 17 -6 22 -4 17 7 -2 7 1
19 9 26 12 9 16 7 20 -9 7 -26 27 -26 27 0 0 11 -7 20 -15 20 -16 0 -40 48
-29 59 3 3 17 6 32 6 14 1 27 6 30 13 3 9 -8 12 -37 11 -22 -2 -44 0 -47 4 -4
4 -2 7 4 7 7 0 12 5 12 10 0 6 -6 10 -14 10 -8 0 -17 6 -19 13 -4 9 -8 8 -16
-3 -6 -8 -11 -11 -11 -6 0 5 7 17 15 26 14 16 13 20 -12 41 -29 25 -35 76 -8
65 7 -2 16 2 19 10 8 22 8 24 -8 24 -8 0 -16 7 -20 15 -6 17 -56 17 -56 0 0
-5 -5 -2 -11 9 -9 14 -8 20 2 27 8 5 9 9 3 9 -14 0 -41 -30 -48 -55 -3 -13 -4
-10 -2 7 2 21 -2 28 -22 33 -27 7 -52 -8 -33 -19 6 -4 11 -2 11 5 0 8 4 8 15
-1 21 -17 19 -27 -5 -25 -22 1 -60 45 -39 45 11 0 49 37 49 47 0 3 -6 3 -12 0
-7 -2 -22 0 -33 6 -27 14 -88 19 -80 7 3 -6 -4 -10 -16 -10 -18 0 -19 2 -9 15
15 18 6 45 -15 45 -8 0 -15 5 -15 11 0 6 9 9 19 6 14 -3 18 -1 14 9 -6 17 -19
18 -28 3 -4 -6 -13 -8 -21 -5 -7 3 -11 0 -8 -7 2 -7 -4 -13 -16 -14 -11 -1
-20 4 -20 13 0 8 4 14 10 14 5 0 7 7 4 15 -4 8 1 17 10 21 9 3 16 10 16 16 0
5 -4 6 -10 3 -5 -3 -10 -2 -10 3 0 6 -7 13 -16 16 -11 4 -14 1 -10 -12 7 -22
-39 -44 -73 -35 -27 7 -62 38 -53 47 3 3 -3 6 -14 6 -19 1 -19 1 0 15 16 12
22 12 28 2 6 -9 8 -8 8 3 0 23 -35 49 -51 39 -12 -8 -12 -11 1 -19 13 -8 13
-11 0 -24 -22 -21 -65 -32 -55 -15 3 8 -3 3 -14 -10 -12 -13 -21 -19 -21 -14
0 5 5 14 12 21 9 9 8 12 -5 12 -9 0 -17 4 -17 10 0 5 18 8 40 6 22 -2 40 0 40
5 0 14 -86 22 -109 10 -17 -10 -20 -9 -15 4 5 12 1 14 -17 11 -13 -3 -26 -5
-29 -5 -3 -1 2 -5 10 -11 12 -8 12 -10 -3 -16 -25 -9 -34 3 -19 26 9 14 9 20
1 20 -8 0 -8 5 1 15 9 10 9 15 1 15 -6 0 -12 -3 -13 -7z m66 -92 c3 -5 -2 -11
-12 -13 -11 -3 -19 0 -19 8 0 16 23 19 31 5z m-44 -11 c0 -5 -7 -10 -16 -10
-8 0 -12 5 -9 10 3 6 10 10 16 10 5 0 9 -4 9 -10z m-40 -9 c0 -9 -41 -23 -49
-16 -3 4 28 20 47 24 1 1 2 -3 2 -8z m-115 -39 c-3 -3 -11 0 -18 7 -9 10 -8
11 6 5 10 -3 15 -9 12 -12z m252 12 c-3 -3 -12 -4 -19 -1 -8 3 -5 6 6 6 11 1
17 -2 13 -5z m-96 -27 c-6 -8 -8 -17 -4 -20 3 -4 2 -7 -3 -8 -5 0 -18 -2 -29
-4 -11 -3 -29 -2 -39 2 -19 5 -19 6 -1 19 10 8 26 12 34 9 9 -2 23 0 31 5 21
13 24 12 11 -3z m94 3 c3 -5 -3 -10 -15 -10 -12 0 -18 5 -15 10 3 6 10 10 15
10 5 0 12 -4 15 -10z m241 -15 c-13 -10 -25 -11 -43 -4 -33 12 -37 11 -19 -6
8 -8 21 -15 30 -15 8 0 21 -8 28 -18 19 -27 35 -34 41 -18 3 8 -1 13 -10 12
-9 0 -18 4 -20 10 -2 7 6 10 22 6 18 -3 24 -9 21 -19 -3 -8 -6 -18 -6 -23 0
-4 -14 -10 -30 -12 -22 -3 -29 -1 -26 8 3 7 -8 14 -30 19 -19 3 -32 10 -29 14
8 14 -26 23 -40 11 -22 -19 -26 6 -4 26 12 11 43 21 72 24 60 7 69 4 43 -15z
m-498 -32 c-19 -3 -28 -10 -28 -23 0 -10 -3 -21 -7 -23 -13 -8 -55 12 -48 23
3 5 0 10 -7 10 -9 0 -10 2 -1 8 6 4 35 8 65 8 29 1 41 -1 26 -3z m324 -33
c-15 -3 -27 -10 -27 -15 0 -6 -4 -9 -10 -7 -5 2 -4 -3 4 -10 11 -10 14 -10 18
0 6 17 23 15 23 -3 0 -8 -7 -15 -15 -15 -8 0 -15 -5 -15 -11 0 -5 4 -7 10 -4
6 3 7 -1 4 -9 -7 -19 -24 -21 -24 -3 -1 32 -15 38 -58 23 -42 -15 -49 -13 -33
13 5 8 17 11 32 6 14 -3 19 -3 12 2 -8 6 -9 13 -2 23 7 12 11 13 18 2 6 -11 9
-9 13 6 4 13 16 22 34 24 38 4 52 -15 16 -22z m268 16 c0 -2 -7 -6 -15 -10 -8
-3 -15 -1 -15 4 0 6 7 10 15 10 8 0 15 -2 15 -4z m-596 -21 c-4 -8 -8 -15 -10
-15 -2 0 -4 7 -4 15 0 8 4 15 10 15 5 0 7 -7 4 -15z m145 -4 c18 -14 20 -19 9
-24 -18 -6 -32 2 -41 26 -8 22 2 21 32 -2z m-55 -6 c-5 16 -4 17 5 5 16 -22
13 -30 -9 -30 -14 0 -20 7 -20 22 0 21 0 21 15 2 15 -19 15 -19 9 1z m351 -15
c3 -5 2 -10 -4 -10 -5 0 -13 5 -16 10 -3 6 -2 10 4 10 5 0 13 -4 16 -10z m155
-18 c0 -15 -2 -15 -10 -2 -13 20 -13 33 0 25 6 -3 10 -14 10 -23z m70 19 c7
10 11 10 24 0 17 -14 22 -36 7 -26 -5 3 -12 1 -16 -5 -4 -6 -11 -8 -16 -5 -5
4 -9 1 -9 -4 0 -6 -5 -11 -10 -11 -6 0 -9 12 -6 28 6 37 7 39 13 23 4 -11 7
-11 13 0z m-756 -7 c22 -8 20 -19 -3 -21 -11 -1 -22 5 -25 13 -6 15 3 18 28 8z
m721 -4 c3 -5 1 -10 -4 -10 -6 0 -11 5 -11 10 0 6 2 10 4 10 3 0 8 -4 11 -10z
m-454 -17 c13 -16 12 -17 -3 -4 -17 13 -22 21 -14 21 2 0 10 -8 17 -17z m322
-11 c-6 -23 -53 -46 -53 -26 0 7 9 18 20 24 11 6 18 15 15 20 -3 6 0 7 8 4 8
-3 13 -13 10 -22z m-216 -42 c-5 -39 -3 -51 9 -58 9 -5 16 -13 16 -18 -1 -5 6
-8 14 -6 8 2 14 -5 14 -18 0 -13 6 -20 18 -19 10 0 12 3 5 6 -21 8 -15 22 7
16 11 -3 21 0 21 6 1 6 2 17 3 24 1 6 -2 14 -6 17 -4 3 -3 11 1 19 6 10 14 7
33 -11 13 -13 17 -17 8 -10 -14 10 -16 9 -14 -10 1 -13 3 -24 3 -26 1 -1 10 2
20 8 13 7 22 7 26 0 3 -5 -1 -10 -9 -10 -9 0 -16 -4 -16 -9 0 -5 -10 -12 -22
-14 -13 -2 -7 -4 12 -4 19 0 49 -1 65 -2 26 -2 28 -3 10 -11 -16 -7 -17 -9 -3
-9 11 -1 16 -8 13 -20 -3 -14 1 -18 11 -14 8 3 14 0 14 -6 0 -16 43 -31 51
-19 3 5 9 2 13 -7 5 -14 2 -16 -21 -11 l-28 6 25 -16 c14 -8 17 -13 8 -10 -9
2 -19 -2 -22 -10 -3 -8 -12 -14 -21 -14 -8 0 -14 -3 -14 -7 3 -19 -2 -27 -10
-14 -9 15 -71 7 -71 -10 0 -5 -4 -9 -10 -9 -6 0 -6 9 0 24 6 17 5 26 -3 30
-18 7 13 26 43 26 19 0 22 -2 10 -10 -12 -8 -12 -10 3 -16 30 -11 42 11 21 40
-19 25 -44 35 -44 16 0 -20 -32 -9 -55 18 -21 25 -63 42 -49 21 2 -4 -2 -9 -9
-11 -11 -2 -9 -8 6 -23 11 -11 17 -14 13 -7 -4 6 -3 12 2 12 12 0 24 -29 17
-40 -3 -5 -12 -7 -20 -3 -11 3 -13 1 -9 -10 4 -10 0 -15 -13 -14 -12 2 -17 -4
-15 -17 3 -14 -1 -17 -13 -12 -9 3 -20 6 -25 6 -4 0 -11 7 -14 16 -4 10 -1 14
6 12 17 -6 33 12 35 39 1 15 -3 20 -13 16 -8 -3 -14 0 -14 6 0 6 4 11 9 11 5
0 11 13 13 28 4 26 2 27 -19 18 -13 -6 -23 -17 -23 -24 0 -9 -5 -10 -19 -3
-15 8 -22 6 -37 -14 -19 -25 -52 -36 -37 -12 18 29 9 35 -20 13 -28 -20 -35
-21 -56 -10 l-24 12 34 17 c28 13 31 13 15 1 -23 -19 -16 -30 13 -21 12 4 18
13 16 24 -3 15 5 21 33 26 20 4 31 10 25 12 -18 6 -16 23 2 23 8 0 15 3 16 8
5 69 4 84 -5 89 -8 5 32 30 53 33 2 0 1 -22 -2 -50z m270 21 c0 -19 -5 -27
-12 -24 -7 2 -15 -3 -18 -11 -5 -11 0 -16 13 -16 22 0 28 -19 8 -21 -10 0 -10
-2 0 -6 6 -2 10 -9 6 -14 -3 -5 1 -10 8 -10 7 -1 -3 -5 -22 -8 -45 -9 -64 -3
-50 14 9 10 7 12 -7 9 -12 -3 -22 4 -30 21 -10 22 -9 25 7 25 10 0 21 7 24 16
4 10 12 14 22 10 11 -4 15 -2 11 8 -6 15 11 36 28 36 7 0 12 -13 12 -29z m79
12 c18 -24 17 -33 -2 -33 -9 0 -13 5 -9 13 4 6 0 4 -7 -5 -10 -11 -19 -14 -29
-7 -8 5 -9 9 -3 9 7 0 14 9 17 20 6 25 16 25 33 3z m-839 -9 c-3 -3 -12 -4
-19 -1 -8 3 -5 6 6 6 11 1 17 -2 13 -5z m221 -14 c3 -7 0 -10 -6 -6 -6 3 -13
0 -15 -6 -3 -7 -6 -2 -6 10 -1 25 19 26 27 2z m-48 -19 c0 -12 -20 -25 -27
-18 -7 7 6 27 18 27 5 0 9 -4 9 -9z m734 -16 c2 -7 -1 -16 -9 -19 -16 -6 -39
19 -31 33 8 13 33 4 40 -14z m-374 0 c-7 -9 -15 -13 -19 -10 -3 3 1 10 9 15
21 14 24 12 10 -5z m-330 -5 c0 -5 -5 -10 -11 -10 -5 0 -7 5 -4 10 3 6 8 10
11 10 2 0 4 -4 4 -10z m755 0 c3 -5 -1 -10 -9 -10 -9 0 -16 5 -16 10 0 6 4 10
9 10 6 0 13 -4 16 -10z m-552 -19 c4 -15 0 -18 -20 -16 -28 3 -44 15 -20 15
10 0 17 5 17 10 0 18 17 11 23 -9z m602 8 c11 -17 -1 -21 -15 -4 -8 9 -8 15
-2 15 6 0 14 -5 17 -11z m-895 -18 c0 -4 -16 -5 -35 -3 -19 2 -33 7 -30 11 5
9 65 1 65 -8z m205 -1 c3 -5 1 -10 -4 -10 -6 0 -11 5 -11 10 0 6 2 10 4 10 3
0 8 -4 11 -10z m539 -15 c3 -8 1 -15 -4 -15 -6 0 -10 7 -10 15 0 8 2 15 4 15
2 0 6 -7 10 -15z m-464 -19 c0 -3 -4 -8 -10 -11 -5 -3 -10 -1 -10 4 0 6 5 11
10 11 6 0 10 -2 10 -4z m-105 -16 c-3 -5 -12 -10 -18 -10 -7 0 -6 4 3 10 19
12 23 12 15 0z m735 -16 c0 -12 -2 -12 -14 -2 -8 7 -12 16 -9 21 7 11 23 -2
23 -19z m-1050 6 c0 -5 -5 -10 -11 -10 -5 0 -7 5 -4 10 3 6 8 10 11 10 2 0 4
-4 4 -10z m42 -16 c2 -7 -1 -14 -6 -15 -5 -2 -11 7 -13 21 -3 24 12 19 19 -6z
m-101 -11 c-12 -20 -14 -14 -5 12 4 9 9 14 11 11 3 -2 0 -13 -6 -23z m48 -14
c-22 -13 -31 -11 -17 5 7 8 17 12 22 9 4 -3 2 -9 -5 -14z m496 1 c3 -5 1 -10
-4 -10 -6 0 -11 5 -11 10 0 6 2 10 4 10 3 0 8 -4 11 -10z m-85 -29 c0 -6 -4
-13 -10 -16 -5 -3 -10 1 -10 9 0 9 5 16 10 16 6 0 10 -4 10 -9z m90 4 c0 -2
-10 -10 -22 -16 -21 -11 -22 -11 -9 4 13 16 31 23 31 12z m597 -17 c-3 -8 -6
-5 -6 6 -1 11 2 17 5 13 3 -3 4 -12 1 -19z m-1217 2 c0 -5 -2 -10 -4 -10 -3 0
-8 5 -11 10 -3 6 -1 10 4 10 6 0 11 -4 11 -10z m670 -10 c0 -4 -8 -10 -19 -13
-14 -3 -17 0 -14 14 5 17 33 16 33 -1z m632 -40 c-10 -17 -10 -20 2 -20 25 0
27 -17 5 -41 -11 -13 -18 -18 -14 -11 5 11 -6 17 -27 13 -5 0 -8 4 -8 10 0 6
9 9 20 6 21 -5 27 7 9 18 -6 4 -8 13 -5 21 3 7 0 16 -6 20 -7 4 -6 9 3 15 21
13 36 -8 21 -31z m-1159 23 c-7 -2 -13 -10 -13 -16 0 -7 -11 -17 -25 -24 -14
-6 -25 -8 -25 -5 1 11 30 47 30 37 0 -5 5 -4 12 3 7 7 17 12 23 11 5 0 4 -3
-2 -6z m337 -9 c0 -3 -7 -12 -15 -20 -16 -17 -18 -14 -9 10 6 15 24 23 24 10z
m74 -9 c-4 -8 -16 -15 -28 -15 -20 0 -20 1 4 14 14 8 26 14 27 15 1 1 0 -6 -3
-14z m700 -11 c4 -9 4 -19 2 -21 -8 -8 -26 8 -26 23 0 19 16 18 24 -2z m-1290
-20 c3 -8 2 -12 -4 -9 -6 3 -10 10 -10 16 0 14 7 11 14 -7z m666 6 c0 -5 -5
-10 -11 -10 -5 0 -7 5 -4 10 3 6 8 10 11 10 2 0 4 -4 4 -10z m97 -3 c0 -7 -6
-18 -14 -25 -16 -15 -17 -8 -3 19 12 22 17 24 17 6z m-180 -12 c25 -18 21 -50
-8 -52 -11 -1 -17 2 -14 6 2 5 -2 14 -10 21 -7 6 -11 18 -8 26 7 18 13 18 40
-1z m308 -35 c3 -5 1 -10 -4 -10 -6 0 -11 5 -11 10 0 6 2 10 4 10 3 0 8 -4 11
-10z m42 -30 c10 -13 8 -16 -8 -16 -10 0 -19 1 -19 2 0 6 13 34 14 32 1 -2 7
-10 13 -18z m-337 -10 c0 -5 -2 -10 -4 -10 -3 0 -8 5 -11 10 -3 6 -1 10 4 10
6 0 11 -4 11 -10z m73 -25 c4 -8 2 -17 -3 -20 -6 -4 -10 3 -10 14 0 25 6 27
13 6z m22 -105 c3 -5 1 -10 -4 -10 -6 0 -11 5 -11 10 0 6 2 10 4 10 3 0 8 -4
11 -10z"/>
<path d="M1740 1730 c0 -5 5 -10 10 -10 6 0 10 5 10 10 0 6 -4 10 -10 10 -5 0
-10 -4 -10 -10z"/>
<path d="M1915 1454 c9 -9 18 -14 21 -11 9 9 -6 27 -22 27 -13 0 -13 -2 1 -16z"/>
<path d="M2038 1408 c9 -9 15 -9 24 0 9 9 7 12 -12 12 -19 0 -21 -3 -12 -12z"/>
<path d="M1946 1885 c4 -8 8 -15 10 -15 2 0 4 7 4 15 0 8 -4 15 -10 15 -5 0
-7 -7 -4 -15z"/>
<path d="M2040 1883 c1 -21 15 -30 27 -18 10 10 9 14 -3 19 -20 8 -24 8 -24
-1z"/>
<path d="M2160 1830 c0 -5 5 -10 10 -10 6 0 10 5 10 10 0 6 -4 10 -10 10 -5 0
-10 -4 -10 -10z"/>
<path d="M2055 1819 c-4 -6 -5 -12 -4 -14 15 -13 82 1 73 16 -7 13 -61 11 -69
-2z"/>
<path d="M1536 1803 c-11 -11 -7 -20 9 -20 8 0 15 4 15 8 0 11 -16 20 -24 12z"/>
<path d="M2264 1707 c0 -14 4 -23 8 -21 4 3 16 1 26 -5 14 -7 21 -5 30 9 11
18 10 19 -13 10 -20 -7 -27 -5 -39 11 -14 20 -14 20 -12 -4z"/>
<path d="M2590 1575 c-10 -12 -16 -13 -27 -4 -7 7 -16 9 -19 6 -8 -7 32 -28
48 -25 14 3 28 18 28 31 0 12 -17 8 -30 -8z"/>
<path d="M1670 1515 c-7 -9 -8 -15 -2 -15 5 0 12 7 16 15 3 8 4 15 2 15 -2 0
-9 -7 -16 -15z"/>
<path d="M2560 1510 c0 -4 12 -12 26 -19 28 -12 52 -5 36 11 -11 11 -62 18
-62 8z"/>
<path d="M1330 1496 c14 -8 27 -12 29 -10 6 6 -1 11 -29 18 l-25 7 25 -15z"/>
<path d="M2627 1485 c-10 -14 -13 -25 -7 -25 17 0 11 -28 -7 -39 -15 -8 -11
-10 20 -11 26 0 37 -4 37 -15 0 -8 7 -15 15 -15 13 0 14 4 5 20 -6 11 -15 20
-21 20 -6 0 -7 6 -3 13 6 10 4 10 -7 0 -17 -17 -32 -17 -23 -1 7 12 17 78 11
78 -1 0 -10 -12 -20 -25z"/>
<path d="M2535 1480 c-3 -5 -1 -10 4 -10 6 0 11 5 11 10 0 6 -2 10 -4 10 -3 0
-8 -4 -11 -10z"/>
<path d="M2584 1464 c9 -8 13 -20 10 -26 -4 -7 -2 -8 4 -4 14 8 -2 46 -19 46
-6 0 -3 -7 5 -16z"/>
<path d="M1594 1458 c-5 -8 -2 -9 9 -5 10 3 17 2 17 -4 0 -6 5 -7 10 -4 6 4 8
11 5 16 -8 13 -32 11 -41 -3z"/>
<path d="M1566 1401 c-12 -5 -15 -10 -9 -14 6 -4 16 0 23 8 14 17 13 17 -14 6z"/>
<path d="M1592 1389 c-10 -16 -19 -19 -50 -13 l-37 7 25 -21 25 -22 -33 11
c-30 10 -63 2 -34 -8 6 -3 12 -11 12 -20 0 -12 -2 -12 -16 1 -17 18 -38 12
-31 -8 3 -7 1 -19 -3 -27 -12 -19 10 -45 22 -27 6 9 8 7 6 -7 -2 -12 -10 -19
-21 -17 -21 3 -23 -14 -3 -21 9 -4 16 -24 19 -54 l3 -48 2 48 c2 39 5 48 19
45 9 -2 18 -14 20 -27 5 -36 10 -36 15 -1 4 23 0 33 -11 38 -27 10 -43 45 -18
40 6 -1 28 1 47 5 29 6 36 12 38 33 1 14 -2 23 -8 19 -6 -3 -10 -13 -10 -21 0
-8 -8 -14 -17 -14 -13 0 -14 3 -5 12 7 7 12 21 12 32 0 11 12 32 27 48 14 15
24 30 22 32 -3 3 -10 -4 -17 -15z"/>
<path d="M2606 1385 c4 -8 10 -15 15 -15 5 0 9 7 9 15 0 8 -7 15 -15 15 -9 0
-12 -6 -9 -15z"/>
<path d="M2355 1330 c11 -18 26 -35 33 -36 7 -1 8 0 3 2 -6 3 -8 11 -6 17 3 7
-8 21 -22 32 l-27 19 19 -34z"/>
<path d="M1575 1340 c-3 -5 -1 -10 4 -10 6 0 11 5 11 10 0 6 -2 10 -4 10 -3 0
-8 -4 -11 -10z"/>
<path d="M2305 1270 c3 -5 8 -10 11 -10 2 0 4 5 4 10 0 6 -5 10 -11 10 -5 0
-7 -4 -4 -10z"/>
<path d="M2390 1252 c-16 -6 -40 -27 -40 -36 0 -3 8 -3 18 0 13 4 12 1 -5 -14
l-22 -19 47 -1 c37 0 42 2 22 8 -23 7 -23 8 -4 9 12 1 24 7 27 15 7 17 -24 44
-43 38z"/>
<path d="M2463 1235 c-29 -20 -24 -51 8 -47 31 5 30 3 21 35 -7 26 -8 26 -29
12z"/>
<path d="M2101 1194 c0 -11 3 -14 6 -6 3 7 2 16 -1 19 -3 4 -6 -2 -5 -13z"/>
<path d="M2514 1198 c-5 -8 0 -9 14 -6 12 4 20 2 16 -3 -3 -5 0 -9 5 -9 6 0
11 7 11 15 0 18 -36 20 -46 3z"/>
<path d="M2086 1154 c-4 -10 -1 -14 6 -12 15 5 23 28 10 28 -5 0 -13 -7 -16
-16z"/>
<path d="M1606 1104 c2 -45 14 -58 14 -16 0 18 0 35 1 39 0 4 -3 9 -8 10 -5 2
-8 -13 -7 -33z"/>
<path d="M2280 1059 c0 -17 4 -28 10 -24 6 3 10 17 10 31 0 13 -4 24 -10 24
-5 0 -10 -14 -10 -31z"/>
<path d="M98 861 c10 -6 13 -28 10 -80 -2 -59 0 -71 12 -71 13 0 15 11 12 65
-3 43 0 70 8 80 11 13 8 15 -21 15 -23 0 -29 -3 -21 -9z"/>
<path d="M198 791 c-2 -57 0 -81 9 -81 8 0 10 17 6 58 l-5 57 59 -57 c32 -32
61 -58 65 -58 4 0 8 36 10 80 3 80 3 80 -22 79 -14 0 -19 -3 -12 -6 7 -3 12
-24 12 -56 l0 -51 -59 58 -59 59 -4 -82z"/>
<path d="M374 858 c-5 -8 2 -9 25 -5 l33 7 -4 -75 c-3 -66 -1 -75 15 -75 15 0
17 10 17 75 l0 75 25 -6 c15 -4 25 -2 25 5 0 15 -127 15 -136 -1z"/>
<path d="M548 790 l4 -80 44 0 c24 0 44 4 44 8 0 4 -12 8 -27 7 -25 0 -28 4
-31 34 -3 32 -2 33 22 27 15 -4 26 -2 26 4 0 5 -11 10 -25 10 -21 0 -25 5 -25
31 0 28 2 31 24 25 14 -3 28 -2 31 4 4 6 -12 10 -42 10 l-48 0 3 -80z"/>
<path d="M678 861 c10 -6 13 -28 10 -80 -2 -59 0 -71 13 -71 12 0 14 7 11 30
-3 21 0 30 10 30 8 0 24 -13 36 -30 13 -16 29 -30 38 -30 11 0 8 9 -12 35 -20
27 -24 39 -16 47 15 15 15 51 0 66 -7 7 -32 12 -57 12 -29 0 -41 -3 -33 -9z
m76 -27 c8 -20 -12 -56 -27 -51 -14 4 -21 41 -13 63 6 16 32 9 40 -12z"/>
<path d="M840 792 c0 -48 4 -82 10 -82 6 0 10 24 10 54 l0 55 51 -55 c29 -30
55 -54 60 -54 4 0 9 36 11 80 3 73 1 80 -16 80 -15 0 -16 -3 -6 -15 8 -9 9
-28 5 -56 l-7 -41 -59 58 -59 58 0 -82z"/>
<path d="M1065 835 c-9 -22 -25 -59 -35 -82 -15 -33 -16 -43 -6 -43 8 0 17 11
20 25 5 18 13 25 31 25 17 0 29 -8 37 -25 6 -14 19 -25 29 -25 16 0 15 4 -5
48 -12 26 -29 63 -38 82 l-16 35 -17 -40z m25 -46 c0 -11 -7 -19 -16 -19 -11
0 -14 5 -10 16 3 9 6 20 6 25 0 6 5 7 10 4 6 -3 10 -15 10 -26z"/>
<path d="M1150 855 c0 -11 5 -12 26 -5 14 6 28 10 30 10 3 0 4 -34 2 -75 -2
-62 0 -75 12 -75 13 0 15 11 12 66 -5 73 4 92 37 75 17 -10 21 -9 21 4 0 12
-14 15 -70 15 -55 0 -70 -3 -70 -15z"/>
<path d="M1318 861 c10 -6 13 -28 10 -80 -3 -61 -1 -71 14 -71 14 0 17 13 20
80 l3 80 -30 0 c-20 0 -26 -3 -17 -9z"/>
<path d="M1425 845 c-31 -30 -32 -73 -4 -109 16 -21 29 -26 63 -26 54 0 86 30
86 81 0 73 -92 108 -145 54z m95 -5 c23 -23 28 -88 8 -108 -7 -7 -24 -12 -40
-12 -47 0 -74 73 -42 118 19 27 48 28 74 2z"/>
<path d="M1610 790 c0 -57 4 -80 13 -80 8 0 11 16 9 55 l-4 56 53 -56 c28 -30
56 -55 60 -55 5 0 9 31 9 68 0 40 5 73 12 80 9 9 5 12 -17 11 -17 0 -24 -3
-17 -6 14 -6 17 -103 3 -103 -6 0 -31 25 -58 55 -26 30 -51 55 -55 55 -5 0 -8
-36 -8 -80z"/>
<path d="M1839 844 c-6 -16 -17 -47 -25 -68 -8 -22 -19 -45 -25 -53 -9 -10 -8
-13 4 -13 8 0 18 11 21 25 5 19 13 25 35 25 22 0 30 -6 35 -25 4 -17 13 -25
27 -25 16 0 19 3 12 13 -5 6 -20 39 -33 72 -30 78 -37 84 -51 49z m21 -55 c0
-11 -7 -19 -16 -19 -11 0 -14 5 -10 16 3 9 6 20 6 25 0 6 5 7 10 4 6 -3 10
-15 10 -26z"/>
<path d="M1960 855 c8 -10 11 -37 8 -80 l-4 -65 42 0 c24 0 45 4 48 9 3 5 -9
8 -27 7 l-32 -1 -3 64 c-2 45 1 67 10 72 8 6 1 9 -21 9 -29 0 -32 -2 -21 -15z"/>
<path d="M2150 855 c8 -10 11 -37 8 -80 -3 -54 -1 -65 12 -65 12 0 14 12 12
71 -3 52 0 74 10 80 8 6 2 9 -21 9 -29 0 -32 -2 -21 -15z"/>
<path d="M2248 791 c-2 -54 1 -81 8 -81 7 0 9 17 6 50 -2 28 0 50 5 50 5 0 31
-22 58 -50 27 -27 52 -50 55 -50 3 0 5 24 5 53 -1 28 2 64 6 80 7 25 5 27 -19
26 -15 0 -21 -3 -14 -6 7 -3 12 -24 12 -56 l0 -51 -59 58 -59 59 -4 -82z"/>
<path d="M2452 858 c-20 -20 -13 -48 19 -78 20 -18 30 -34 26 -44 -7 -18 -47
-22 -47 -5 0 5 -5 7 -10 4 -19 -11 1 -25 35 -25 24 0 38 6 45 19 14 27 14 26
-27 71 -28 32 -33 44 -24 53 9 9 16 9 31 -1 17 -10 20 -10 20 3 0 18 -50 21
-68 3z"/>
<path d="M2547 855 c-5 -11 -1 -12 19 -5 14 6 27 10 30 10 2 0 4 -34 4 -75 0
-65 2 -75 18 -75 15 0 17 9 14 75 l-4 76 26 -7 c16 -4 26 -2 26 5 0 18 -127
14 -133 -4z"/>
<path d="M2718 790 c3 -67 6 -80 20 -80 15 0 17 10 14 71 -3 52 0 74 10 80 9
6 3 9 -17 9 l-30 0 3 -80z"/>
<path d="M2790 855 c0 -11 5 -12 26 -5 14 6 28 10 30 10 3 0 4 -34 2 -75 -3
-66 -1 -75 15 -75 15 0 17 10 17 75 l0 75 25 -6 c15 -4 25 -2 25 5 0 7 -25 11
-70 11 -55 0 -70 -3 -70 -15z"/>
<path d="M2958 818 c4 -81 10 -95 39 -106 30 -10 72 0 85 21 4 7 8 38 8 69 0
36 5 58 13 61 6 3 1 6 -13 6 -24 1 -25 -1 -25 -65 0 -53 -4 -69 -17 -78 -13
-8 -23 -8 -35 0 -14 9 -18 25 -18 78 0 59 -2 66 -20 66 -18 0 -20 -6 -17 -52z"/>
<path d="M3120 855 c0 -11 5 -12 25 -5 33 12 38 0 33 -80 -2 -49 0 -60 12 -60
13 0 15 11 12 66 -5 73 4 92 37 75 17 -10 21 -9 21 4 0 12 -14 15 -70 15 -55
0 -70 -3 -70 -15z"/>
<path d="M3288 861 c10 -6 13 -28 10 -80 l-3 -72 44 3 c29 2 46 8 49 18 4 12
2 13 -9 3 -7 -7 -21 -13 -31 -13 -14 0 -18 8 -18 35 0 36 15 46 38 23 9 -9 12
-8 12 5 0 11 -8 17 -25 17 -21 0 -25 5 -25 30 0 31 17 39 38 18 9 -9 12 -8 12
5 0 14 -10 17 -52 17 -33 0 -48 -4 -40 -9z"/>
<path d="M3508 856 c-42 -31 -44 -103 -5 -131 25 -17 80 -20 107 -5 45 24 46
116 1 139 -27 15 -82 13 -103 -3z m86 -15 c21 -24 25 -83 7 -105 -31 -37 -101
4 -101 58 0 56 59 85 94 47z"/>
<path d="M3678 861 c10 -6 13 -28 10 -80 -3 -62 -1 -71 15 -71 13 0 17 9 17
41 0 39 1 41 25 35 14 -4 25 -2 25 4 0 5 -11 10 -25 10 -21 0 -25 5 -25 30 0
31 17 39 38 18 9 -9 12 -8 12 5 0 14 -10 17 -52 17 -33 0 -48 -4 -40 -9z"/>
<path d="M190 523 c0 -72 2 -82 18 -80 15 1 17 10 13 75 -2 53 0 77 9 82 8 5
3 7 -13 7 -27 -2 -27 -2 -27 -84z"/>
<path d="M288 532 c-2 -51 1 -83 8 -86 7 -3 9 17 6 57 l-5 60 59 -56 c32 -31
60 -54 63 -52 10 11 16 155 6 152 -5 -2 -11 -27 -13 -55 -2 -29 -6 -52 -10
-52 -4 0 -30 25 -59 57 l-51 58 -4 -83z"/>
<path d="M488 530 c3 -66 12 -89 32 -90 3 0 4 19 2 41 -4 40 -3 42 22 37 18
-4 26 -1 26 8 0 8 -11 14 -25 14 -20 0 -25 5 -25 25 0 20 5 25 25 25 14 0 25
5 25 10 0 6 -19 9 -42 8 l-43 -3 3 -75z"/>
<path d="M643 598 c-42 -20 -54 -96 -21 -135 17 -21 73 -26 106 -9 34 17 42
33 42 81 0 59 -67 92 -127 63z m72 -23 c50 -49 20 -138 -38 -116 -48 19 -63
85 -27 121 26 26 36 25 65 -5z"/>
<path d="M828 603 c-15 -4 -18 -16 -18 -78 0 -63 2 -73 19 -78 17 -4 19 -1 14
29 -7 44 6 43 50 -1 46 -46 68 -45 28 0 -33 38 -37 50 -21 60 12 7 14 52 3 58
-16 8 -58 14 -75 10z m57 -34 c7 -22 -10 -49 -31 -49 -14 0 -21 60 -8 73 10
10 33 -4 39 -24z"/>
<path d="M977 568 c-3 -24 -9 -63 -13 -87 -5 -32 -4 -42 4 -37 7 4 12 22 12
41 0 49 17 52 36 6 9 -23 20 -41 25 -41 6 0 19 21 31 48 20 45 21 46 28 22 5
-14 8 -36 9 -50 1 -18 7 -26 20 -26 11 0 17 4 14 8 -2 5 -10 43 -17 86 l-12
77 -33 -64 -32 -63 -29 61 c-16 34 -31 61 -33 61 -2 0 -7 -19 -10 -42z"/>
<path d="M1199 526 c-19 -46 -30 -82 -24 -79 7 2 17 15 23 29 17 35 54 32 69
-6 6 -17 19 -30 28 -30 9 0 15 3 13 8 -2 4 -14 30 -26 57 -53 119 -42 116 -83
21z m45 8 c9 -22 8 -24 -9 -24 -8 0 -15 9 -15 20 0 24 15 27 24 4z"/>
<path d="M1300 596 c0 -8 10 -11 31 -8 l31 5 -4 -72 c-3 -62 -1 -71 15 -71 15
0 17 10 17 71 0 71 0 71 25 67 15 -3 25 -1 25 6 0 7 -27 12 -70 13 -52 2 -70
-1 -70 -11z"/>
<path d="M1478 524 c3 -60 7 -81 17 -81 10 0 14 21 17 81 3 75 2 81 -17 81
-19 0 -20 -6 -17 -81z"/>
<path d="M1579 581 c-17 -18 -29 -40 -29 -56 0 -32 49 -85 79 -85 41 0 72 20
87 56 18 42 12 66 -23 94 -37 29 -79 26 -114 -9z m74 8 c30 -16 37 -28 37 -71
0 -44 -23 -71 -54 -62 -53 15 -74 86 -36 124 23 23 25 24 53 9z"/>
<path d="M1770 546 c0 -35 -3 -71 -6 -80 -4 -10 -1 -16 7 -16 11 0 13 13 11
52 l-4 53 61 -60 61 -59 0 75 c0 41 5 80 11 86 7 7 3 11 -16 11 -19 0 -23 -4
-16 -11 6 -6 11 -34 11 -61 l-1 -51 -59 63 -60 63 0 -65z"/>
<path d="M2004 601 c-11 -12 -1 -17 26 -13 l30 4 0 -70 c0 -53 4 -71 15 -76
13 -4 15 7 15 70 0 76 0 76 25 72 15 -3 25 -1 25 6 0 10 -126 17 -136 7z"/>
<path d="M2178 528 l3 -76 35 -7 c34 -6 54 -1 54 14 0 4 -13 6 -30 3 -28 -4
-30 -2 -30 28 0 29 3 32 25 28 18 -4 25 -1 25 10 0 10 -7 13 -25 10 -22 -5
-25 -2 -25 25 0 26 3 29 25 25 17 -4 25 -1 25 8 0 10 -12 13 -42 12 l-43 -3 3
-77z"/>
<path d="M2324 587 c-36 -31 -39 -87 -6 -119 29 -29 115 -33 120 -5 4 18 3 18
-22 2 -24 -16 -28 -16 -51 -1 -66 43 -47 135 28 136 4 0 16 -9 28 -21 l21 -21
-4 24 c-2 19 -10 23 -44 26 -32 2 -48 -2 -70 -21z"/>
<path d="M2478 523 c3 -71 6 -81 21 -80 15 1 18 8 13 39 l-5 38 42 0 41 0 0
-39 c0 -30 4 -39 16 -37 13 2 16 18 17 82 2 73 0 79 -18 80 -18 1 -20 -3 -17
-32 4 -34 4 -34 -38 -34 -42 0 -42 0 -38 33 3 27 0 32 -17 32 -19 0 -20 -5
-17 -82z"/>
<path d="M2798 603 c8 -3 12 -25 12 -61 l-1 -57 -54 58 c-30 33 -59 56 -64 52
-16 -10 -14 -142 2 -148 11 -4 13 7 9 51 l-4 57 61 -59 c68 -67 69 -67 73 39
3 69 2 70 -22 71 -14 1 -19 -1 -12 -3z"/>
<path d="M2895 585 c-50 -50 -23 -130 47 -142 32 -5 41 -1 68 25 45 45 40 101
-11 127 -41 22 -77 18 -104 -10z m76 4 c43 -22 48 -108 8 -129 -20 -11 -56 1
-71 24 -14 20 -8 84 8 100 18 19 28 20 55 5z"/>
<path d="M3078 529 l3 -77 35 -7 c34 -6 54 -1 54 14 0 4 -14 5 -31 3 l-31 -5
4 74 c3 68 1 74 -17 74 -19 0 -20 -6 -17 -76z"/>
<path d="M3216 587 c-51 -52 -25 -132 46 -144 32 -5 41 -1 68 25 56 56 32 128
-47 139 -35 5 -45 2 -67 -20z m81 -2 c40 -28 41 -104 2 -125 -20 -11 -56 1
-71 24 -14 20 -8 84 8 100 19 20 34 20 61 1z"/>
<path d="M3410 581 c-35 -35 -38 -68 -10 -104 22 -28 74 -43 108 -33 28 9 36
76 10 76 -14 0 -18 -8 -18 -35 0 -38 -6 -41 -43 -24 -26 12 -47 47 -47 78 0
49 65 76 100 41 l22 -22 -4 24 c-2 19 -10 23 -46 26 -36 3 -47 -1 -72 -27z"/>
<path d="M3587 557 c27 -40 34 -59 30 -83 -5 -27 -3 -31 12 -27 13 3 17 12 13
28 -4 24 9 56 42 108 14 21 15 26 4 22 -8 -3 -24 -22 -35 -41 l-20 -36 -19 39
c-13 24 -27 39 -41 40 -20 2 -19 -2 14 -50z"/>
<path d="M978 140 c4 -60 22 -86 22 -30 0 27 3 30 30 30 25 0 30 -4 30 -24 0
-14 4 -27 9 -30 5 -4 11 21 13 54 2 50 0 60 -13 60 -12 0 -15 -7 -11 -25 4
-22 1 -25 -28 -25 -29 0 -32 3 -28 25 4 18 1 25 -11 25 -13 0 -15 -10 -13 -60z"/>
<path d="M1236 163 c13 -20 23 -44 22 -52 -1 -9 2 -18 7 -20 6 -2 13 12 16 33
3 20 14 45 24 56 16 18 16 20 2 20 -10 0 -17 -6 -17 -14 0 -7 -7 -19 -15 -26
-12 -10 -15 -7 -21 14 -4 16 -13 26 -25 26 -17 0 -16 -3 7 -37z"/>
<path d="M1448 140 c4 -58 5 -60 30 -60 23 1 25 2 10 11 -13 7 -18 23 -18 54
0 38 3 45 19 45 44 0 70 -68 34 -89 -15 -9 -15 -10 -2 -11 39 0 54 64 21 93
-11 10 -35 17 -58 17 l-39 0 3 -60z"/>
<path d="M1698 140 c3 -44 8 -60 18 -60 10 0 13 7 8 26 -5 21 -2 26 17 31 l23
6 -22 8 c-24 9 -20 35 6 42 10 3 1 5 -18 6 l-35 1 3 -60z"/>
<path d="M1908 140 c4 -57 22 -87 22 -35 0 32 7 31 37 -1 13 -14 27 -23 30
-20 4 4 -3 16 -14 28 -18 17 -20 25 -10 45 13 28 -2 43 -43 43 -24 0 -25 -2
-22 -60z m47 25 c0 -10 -6 -20 -12 -22 -8 -3 -13 5 -13 22 0 17 5 25 13 23 6
-3 12 -13 12 -23z"/>
<path d="M2133 145 c-11 -30 -18 -57 -13 -60 4 -3 10 4 13 15 6 23 47 28 47 6
0 -15 18 -31 26 -23 6 5 -37 117 -45 117 -3 0 -16 -25 -28 -55z m37 -6 c0 -5
-4 -9 -10 -9 -5 0 -10 7 -10 16 0 8 5 12 10 9 6 -3 10 -10 10 -16z"/>
<path d="M2348 140 c3 -41 8 -60 15 -57 7 2 10 16 9 31 -3 20 0 27 10 24 7 -3
13 -15 12 -27 0 -11 3 -21 8 -21 13 0 21 28 13 48 -4 9 -8 26 -9 37 -1 15 -9
21 -31 23 l-30 3 3 -61z m42 30 c0 -11 -4 -20 -10 -20 -5 0 -10 9 -10 20 0 11
5 20 10 20 6 0 10 -9 10 -20z"/>
<path d="M2571 143 c-12 -31 -19 -58 -16 -62 3 -3 8 5 12 17 7 28 39 29 53 2
20 -38 28 -10 9 30 -10 21 -19 43 -19 49 0 5 -4 12 -9 15 -4 3 -18 -20 -30
-51z m29 1 c0 -8 -5 -12 -10 -9 -6 4 -8 11 -5 16 9 14 15 11 15 -7z"/>
<path d="M2787 143 c1 -56 2 -58 30 -60 15 -1 20 1 11 3 -14 4 -18 16 -18 55
0 51 7 57 41 39 22 -12 26 -59 7 -78 -9 -9 -9 -12 0 -12 22 0 43 45 33 72 -11
29 -29 38 -74 38 l-32 0 2 -57z"/>
</g>
</svg>
