<?xml version="1.0" standalone="no"?>
<!DOCTYPE svg PUBLIC "-//W3C//DTD SVG 20010904//EN"
 "http://www.w3.org/TR/2001/REC-SVG-20010904/DTD/svg10.dtd">
<svg version="1.0" xmlns="http://www.w3.org/2000/svg"
 width="280.000000pt" height="106.000000pt" viewBox="0 0 280.000000 106.000000"
 preserveAspectRatio="xMidYMid meet">
<metadata>
Created by potrace 1.16, written by Peter Selinger 2001-2019
</metadata>
<g transform="translate(0.000000,106.000000) scale(0.100000,-0.100000)"
fill="#000000" stroke="none">
<path d="M8 717 l-3 -302 63 48 c127 96 250 137 406 137 147 0 276 -43 394
-132 35 -27 65 -48 68 -48 2 0 3 134 2 298 l-3 297 -125 3 -124 3 -108 -108
-108 -108 -108 108 -107 107 -122 0 -122 0 -3 -303z"/>
<path d="M343 565 c-116 -32 -231 -110 -293 -200 -17 -24 -30 -46 -30 -49 0
-3 26 -6 59 -6 l58 0 32 65 c35 70 87 121 160 157 67 33 187 37 263 8 75 -28
149 -98 183 -172 l26 -58 60 0 c32 0 59 4 59 8 0 17 -58 88 -109 134 -121 109
-311 155 -468 113z"/>
<path d="M395 519 c-67 -19 -132 -97 -150 -176 l-7 -33 232 0 233 0 -7 31
c-16 81 -83 159 -153 178 -45 13 -106 13 -148 0z"/>
<path d="M270 170 c-11 -11 -20 -29 -20 -40 0 -23 33 -60 54 -60 7 0 25 9 39
21 l26 20 31 -23 c29 -21 33 -21 58 -7 38 21 38 77 0 98 -25 14 -29 14 -58 -7
l-31 -23 -26 20 c-32 26 -48 26 -73 1z"/>
</g>
</svg>
